# xmcd
#
# Track frame offsets: 
#        150
#        14959
#        33131
#        49522
#        63728
#        80432
#        96435
#        114404
#        131413
#        147650
#
# Disc length: 2149 seconds
#
# Revision: 0
# Processed by: cddbd v1.5.2PL0 Copyright (c) Steve Scherf et al.
# Submitted via: ExactAudioCopy v1.3
#
DISCID=8d08630a
DTITLE=Kingsborough - 1544
DYEAR=2017
DGENRE=Blues
TTITLE0=Percy
TTITLE1=Low Down
TTITLE2=Subtle Lies
TTITLE3=Right On Time
TTITLE4=Wild Ones
TTITLE5=Something Strange
TTITLE6=Where I Belong
TTITLE7=Hard On The Heart
TTITLE8=No More
TTITLE9=Before Long
EXTD=
EXTT0=
EXTT1=
EXTT2=
EXTT3=
EXTT4=
EXTT5=
EXTT6=
EXTT7=
EXTT8=
EXTT9=
PLAYORDER=
